<svg width="134" height="140" viewBox="0 0 134 140" fill="none" xmlns="http://www.w3.org/2000/svg">
<g filter="url(#filter0_d_64_32)">
<path d="M75.2917 86.3542C74.5833 86.6042 73.4167 86.6042 72.7083 86.3542C66.6667 84.2917 53.1667 75.6875 53.1667 61.1042C53.1667 54.6667 58.3542 49.4584 64.75 49.4584C68.5417 49.4584 71.8958 51.2917 74 54.125C76.1042 51.2917 79.4792 49.4584 83.25 49.4584C89.6458 49.4584 94.8333 54.6667 94.8333 61.1042C94.8333 75.6875 81.3333 84.2917 75.2917 86.3542Z" fill="#FF4545"/>
<path d="M75.2917 86.3542C74.5833 86.6042 73.4167 86.6042 72.7083 86.3542C66.6667 84.2917 53.1667 75.6875 53.1667 61.1042C53.1667 54.6667 58.3542 49.4584 64.75 49.4584C68.5417 49.4584 71.8958 51.2917 74 54.125C76.1042 51.2917 79.4792 49.4584 83.25 49.4584C89.6458 49.4584 94.8333 54.6667 94.8333 61.1042C94.8333 75.6875 81.3333 84.2917 75.2917 86.3542Z" stroke="#2E2E2E" stroke-width="6" stroke-linecap="round" stroke-linejoin="round"/>
</g>
<defs>
<filter id="filter0_d_64_32" x="0.166672" y="-3.54163" width="147.667" height="143.083" filterUnits="userSpaceOnUse" color-interpolation-filters="sRGB">
<feFlood flood-opacity="0" result="BackgroundImageFix"/>
<feColorMatrix in="SourceAlpha" type="matrix" values="0 0 0 0 0 0 0 0 0 0 0 0 0 0 0 0 0 0 127 0" result="hardAlpha"/>
<feOffset/>
<feGaussianBlur stdDeviation="25"/>
<feComposite in2="hardAlpha" operator="out"/>
<feColorMatrix type="matrix" values="0 0 0 0 1 0 0 0 0 0.270588 0 0 0 0 0.270588 0 0 0 1 0"/>
<feBlend mode="normal" in2="BackgroundImageFix" result="effect1_dropShadow_64_32"/>
<feBlend mode="normal" in="SourceGraphic" in2="effect1_dropShadow_64_32" result="shape"/>
</filter>
</defs>
</svg>
